<svg xmlns="http://www.w3.org/2000/svg" xmlns:xlink="http://www.w3.org/1999/xlink" width="192" height="192" viewBox="0 0 50.8 50.8">
  <defs>
    <linearGradient id="a">
      <stop offset="0" stop-color="#DC143C"/>
      <stop offset="1" stop-color="#FF6347"/>
    </linearGradient>
    <linearGradient xlink:href="#a" id="b" x1="144.857" y1="326.324" x2="205.021" y2="381.074" gradientUnits="userSpaceOnUse" gradientTransform="matrix(.79374 0 0 .79374 -113.218 -7.715)"/>
  </defs>
  <path style="line-height:1.25" d="M13.159 248.795c.095.666.127 1.301.127 2.19v.445h-7.65c-1.779 0-2.763-.032-3.875-.127.096.825.127 1.524.127 2.635v3.302c0 1.175-.03 1.906-.158 2.636h4.857v-4.096h18.956v4.096h4.824a21.655 21.655 0 0 1-.158-2.605v-3.333c0-1.174.032-1.841.127-2.635-1.143.095-2.096.127-3.874.127h-8.127v-.476c0-.889.063-1.556.158-2.16zm-5.841 8.476v4.637c.984-.127 1.937-.16 3.492-.16h7.302c-.508.509-1.08.954-2.19 1.748h-1.906c.064.603.096 1.237.096 1.618v.286H5.888c-1.683 0-3.175-.063-4.445-.222v4.92a44.125 44.125 0 0 1 4.445-.221h8.224v3.493c0 .508-.445.697-1.683.697-1.016 0-2.604-.126-4.287-.285.921 2.127 1.176 2.92 1.43 4.572 1.555.095 2.826.127 3.81.127 4.445 0 5.587-.826 5.587-4.032v-4.572h3.813v4.97h-.507c-1.016 0-1.588-.032-2.318-.127v4.445a15.94 15.94 0 0 1 2.19-.126h.635v5.65c-1.874.54-2.762.763-3.746.922l1.11 5.047c.445-.158.668-.253 1.271-.443 3.652-1.27 5.556-2.033 9.207-3.81l-.096-4.478c-1.524.635-1.905.794-3.048 1.239v-4.127h.636c.635 0 1.27.031 1.969.094v-4.38c-.603.063-.953.094-1.969.094h-.636v-4.938c1.182.034 2.353.096 3.174.19v-4.921c-1.08.126-2.731.235-4.414.221l-6.343-.051c-.19-.015.197.021 0 0 1.477-1.044 3.194-2.481 4.883-4.045.413-.38.54-.506 1.048-.919l-2.477-3.113c-.667.095-1.237.127-2.57.127h-9.97c-1.588 0-2.477-.032-3.493-.127zm23.879 7.575c.063.92.061 1.365.061 3.175v12.288c0 1.174-.03 2.158-.061 3.206 1.174-.064 1.936-.095 2.317-.095-.159 1.81-.571 2.921-1.524 3.905-1.174 1.239-3.303 2.285-6.097 3.016 1.27 1.46 1.842 2.35 2.572 4.064 4.953-1.619 7.78-4 9.018-7.525.38-1.11.508-1.777.667-3.46h.984v7.714c0 2.128.825 2.605 4.508 2.605 2.699 0 3.777-.223 4.476-.954.698-.73.953-1.841 1.238-5.556-1.523-.413-2.507-.857-3.936-1.714-.031 1.905-.128 3.429-.286 3.683-.064.127-.349.223-.698.223-.508 0-.667-.096-.667-.414v-5.587h.889l.826-.033c.603.064.983.065 1.173.096.604 0 .604 0 .985.031-.127-1.238-.158-2.318-.158-3.556V268.02c0-1.524.032-2.318.127-3.175-.89.095-1.588.127-3.08.127H34.274c-1.65 0-2.285-.032-3.078-.127zm4.698 4.063h6.92v1.366h-6.92zm0 4.668h6.92v1.334h-6.92zm0 4.636h6.92v1.333h-6.92z" font-weight="400" font-size="40" font-family="sans-serif" letter-spacing="0" word-spacing="0" fill="url(#b)" transform="translate(0 -246.2)"/>
</svg>